<?xml version="1.0" standalone="no"?>
<!DOCTYPE svg PUBLIC "-//W3C//DTD SVG 20010904//EN"
 "http://www.w3.org/TR/2001/REC-SVG-20010904/DTD/svg10.dtd">
<svg version="1.0" xmlns="http://www.w3.org/2000/svg"
 width="700.000000pt" height="700.000000pt" viewBox="0 0 700.000000 700.000000"
 preserveAspectRatio="xMidYMid meet">
<metadata>
Created by potrace 1.14, written by Peter Selinger 2001-2017
</metadata>
<g transform="translate(0.000000,700.000000) scale(0.100000,-0.100000)"
fill="#000000" stroke="none">
<path d="M3397 6664 c-1 -1 -51 -5 -112 -8 -118 -8 -135 -10 -265 -32 -152
-25 -228 -44 -374 -91 -344 -110 -654 -281 -911 -501 -67 -58 -211 -199 -253
-249 l-40 -46 67 -56 c36 -30 68 -58 71 -61 6 -6 178 -150 203 -169 17 -13 27
-6 115 85 304 313 664 522 1082 629 70 18 73 19 140 30 128 22 231 30 385 29
184 -1 257 -9 442 -50 444 -98 853 -339 1174 -691 l45 -50 25 21 c14 12 49 41
79 66 163 137 250 213 250 221 0 31 -320 326 -472 435 -119 85 -307 191 -471
264 -136 61 -433 153 -562 174 -159 26 -222 35 -320 42 -82 6 -294 12 -298 8z"/>
<path d="M3417 5794 c-1 -1 -33 -4 -72 -8 -327 -29 -608 -141 -870 -344 -97
-75 -254 -232 -305 -307 -77 -113 -110 -230 -106 -380 7 -244 145 -457 369
-570 118 -59 210 -78 342 -72 200 8 376 99 490 252 63 84 118 117 211 123 100
7 200 -51 237 -137 7 -17 11 -157 12 -431 l1 -405 200 -5 c109 -3 216 -4 237
-2 l37 3 0 392 c0 218 -5 420 -10 455 -44 268 -263 490 -547 552 -280 61 -572
-47 -740 -276 -25 -34 -63 -71 -85 -84 -112 -63 -281 10 -313 137 -20 78 -4
126 71 219 359 440 911 578 1393 347 370 -178 646 -559 699 -966 5 -38 9 -238
10 -445 1 -374 4 -441 23 -517 43 -173 130 -301 262 -386 95 -62 181 -84 323
-84 71 0 89 4 147 33 47 23 82 51 118 91 50 57 56 60 111 52 4 -1 5 -16 3 -33
-2 -18 -7 -118 -10 -223 -25 -693 -25 -697 -44 -740 -35 -80 -118 -127 -221
-128 -107 0 -206 67 -228 156 -7 23 -11 128 -11 237 0 107 0 207 0 223 l-1 27
-235 0 -235 0 -1 -32 c-2 -161 1 -414 6 -458 15 -130 81 -263 185 -370 145
-150 311 -220 528 -221 43 0 88 3 102 6 14 3 37 7 53 10 271 50 513 307 544
579 17 149 6 2377 -12 2406 -2 3 -6 32 -10 65 -7 67 -6 64 -35 190 -39 165
-92 319 -167 477 l-46 97 -76 -41 c-290 -154 -341 -182 -338 -187 79 -142 173
-424 193 -586 3 -22 9 -65 14 -95 4 -30 9 -252 9 -493 2 -410 1 -440 -17 -480
-40 -88 -130 -138 -238 -132 -102 6 -190 71 -212 158 -7 26 -11 180 -11 409 1
331 -3 442 -16 518 -3 14 -7 41 -10 60 -51 312 -265 698 -506 912 -112 100
-122 108 -214 170 -168 113 -410 216 -580 247 -33 6 -71 13 -85 16 -51 10
-314 26 -323 19z"/>
<path d="M1097 5202 c-71 -153 -133 -320 -152 -411 -2 -9 -12 -54 -23 -101
-11 -47 -23 -107 -27 -135 -3 -27 -8 -63 -10 -80 -2 -16 -7 -55 -10 -85 -6
-57 -7 -1711 -1 -1765 21 -187 29 -237 61 -372 40 -165 105 -344 176 -485 26
-52 33 -58 52 -52 12 3 28 11 35 17 11 8 167 92 308 164 l51 26 -39 86 c-84
182 -146 395 -164 566 -3 28 -7 66 -10 85 -2 19 -4 232 -4 473 0 476 0 475 58
536 87 92 255 95 351 7 65 -60 65 -54 66 -541 2 -449 6 -527 31 -650 41 -200
141 -426 259 -590 181 -253 452 -461 740 -569 39 -15 80 -31 92 -36 30 -12
184 -49 253 -61 101 -17 147 -21 261 -23 104 -2 167 2 304 20 69 8 257 57 339
88 137 52 376 184 376 208 0 10 -258 348 -266 348 -2 0 -30 -17 -61 -37 -235
-151 -514 -211 -813 -177 -345 40 -658 233 -847 522 -50 75 -118 210 -129 251
-2 9 -11 41 -19 71 -35 124 -38 159 -40 615 -1 253 -5 483 -9 510 -49 342
-295 567 -607 554 -108 -5 -179 -39 -253 -120 -36 -41 -60 -58 -81 -60 l-30
-4 -1 75 c-1 41 7 133 17 203 16 113 24 157 45 274 24 128 99 354 156 467 16
32 28 60 26 62 -2 2 -44 24 -93 50 -50 25 -112 59 -140 74 -27 15 -80 44 -116
63 l-67 35 -45 -96z"/>
<path d="M2770 3105 c0 -299 3 -411 14 -468 46 -239 228 -439 471 -518 344
-112 717 40 874 357 51 103 63 171 67 367 l3 177 -27 1 c-34 0 -435 0 -443 0
-3 -1 -6 -77 -6 -169 0 -190 -8 -218 -71 -273 -45 -40 -92 -59 -152 -63 -99
-7 -214 62 -242 143 -8 26 -12 152 -12 436 l-1 400 -238 1 -237 1 0 -392z"/>
<path d="M1627 1423 c-94 -81 -173 -152 -175 -159 -4 -17 220 -243 325 -329
281 -228 642 -411 993 -503 102 -27 262 -59 335 -68 33 -3 63 -8 67 -10 3 -2
75 -7 160 -10 l153 -7 0 218 -1 218 -59 3 c-82 4 -210 14 -237 19 -12 3 -40 7
-63 10 -63 9 -229 53 -326 85 -341 116 -657 320 -917 592 l-82 87 -173 -146z"/>
</g>
</svg>
