<svg width="22" height="22" viewBox="0 0 22 22" fill="none" xmlns="http://www.w3.org/2000/svg">
<g clip-path="url(#clip0_2561_3307)">
<path d="M11 1.98183C13.937 1.98183 14.2853 1.99283 15.4449 2.046C16.6439 2.101 17.8787 2.37417 18.7523 3.24775C19.6341 4.12958 19.899 5.35242 19.954 6.55508C20.0072 7.71467 20.0182 8.063 20.0182 11C20.0182 13.937 20.0072 14.2853 19.954 15.4449C19.8999 16.6375 19.6203 17.8842 18.7523 18.7523C17.8704 19.6341 16.6485 19.899 15.4449 19.954C14.2853 20.0072 13.937 20.0182 11 20.0182C8.063 20.0182 7.71467 20.0072 6.55508 19.954C5.37167 19.8999 4.1085 19.6139 3.24775 18.7523C2.3705 17.875 2.101 16.6403 2.046 15.4449C1.99283 14.2853 1.98183 13.937 1.98183 11C1.98183 8.063 1.99283 7.71467 2.046 6.55508C2.10008 5.36708 2.38242 4.11308 3.24775 3.24775C4.12775 2.36775 5.35517 2.101 6.55508 2.046C7.71467 1.99283 8.063 1.98183 11 1.98183ZM11 0C8.01258 0 7.63767 0.0128333 6.46433 0.066C4.76392 0.143917 3.07542 0.616917 1.84617 1.84617C0.612333 3.08 0.143917 4.76483 0.066 6.46433C0.0128333 7.63767 0 8.01258 0 11C0 13.9874 0.0128333 14.3623 0.066 15.5357C0.143917 17.2343 0.61875 18.9273 1.84617 20.1538C3.07908 21.3868 4.76667 21.8561 6.46433 21.934C7.63767 21.9872 8.01258 22 11 22C13.9874 22 14.3623 21.9872 15.5357 21.934C17.2352 21.8561 18.9255 21.3822 20.1538 20.1538C21.3886 18.9191 21.8561 17.2352 21.934 15.5357C21.9872 14.3623 22 13.9874 22 11C22 8.01258 21.9872 7.63767 21.934 6.46433C21.8561 4.76392 21.3822 3.0745 20.1538 1.84617C18.9228 0.615083 17.2306 0.143 15.5357 0.066C14.3623 0.0128333 13.9874 0 11 0Z" fill="white"/>
<path d="M11 5.35156C7.88059 5.35156 5.3515 7.88065 5.3515 11.0001C5.3515 14.1195 7.88059 16.6486 11 16.6486C14.1194 16.6486 16.6485 14.1195 16.6485 11.0001C16.6485 7.88065 14.1194 5.35156 11 5.35156ZM11 14.6667C8.97509 14.6667 7.33334 13.025 7.33334 11.0001C7.33334 8.97515 8.97509 7.3334 11 7.3334C13.0249 7.3334 14.6667 8.97515 14.6667 11.0001C14.6667 13.025 13.0249 14.6667 11 14.6667Z" fill="white"/>
<path d="M16.8722 6.44786C17.6012 6.44786 18.1922 5.85688 18.1922 5.12786C18.1922 4.39885 17.6012 3.80786 16.8722 3.80786C16.1432 3.80786 15.5522 4.39885 15.5522 5.12786C15.5522 5.85688 16.1432 6.44786 16.8722 6.44786Z" fill="white"/>
</g>
<defs>
<clipPath id="clip0_2561_3307">
<rect width="22" height="22" fill="white"/>
</clipPath>
</defs>
</svg>
