<svg width="150" height="38" viewBox="0 0 150 38" fill="none" xmlns="http://www.w3.org/2000/svg">
<g clip-path="url(#clip0_2616_1022)">
<path d="M17.4258 10.0812H20.8409C21.7749 10.0812 22.6105 9.88696 23.3475 9.49859C24.0845 9.11022 24.6683 8.56064 25.0988 7.84984C25.5293 7.13905 25.7446 6.30735 25.7446 5.35474V5.04697C25.7446 4.0797 25.5366 3.24434 25.1207 2.54087C24.7048 1.83741 24.1283 1.29149 23.3913 0.903115C22.6542 0.514743 21.8041 0.320557 20.8409 0.320557H14.5361V15.7089H17.4258V10.0812ZM17.4258 2.95855H20.5563C21.2422 2.95855 21.7968 3.14908 22.2201 3.53012C22.6433 3.91117 22.8549 4.43144 22.8549 5.09094V5.31077C22.8549 5.97027 22.6433 6.49054 22.2201 6.87159C21.7968 7.25263 21.2422 7.44315 20.5563 7.44315H17.4258V2.95855Z" fill="#F6F6F6"/>
<path d="M31.3051 15.7089H34.1948V2.95855H38.6607V0.320557H26.8392V2.95855H31.3051V15.7089Z" fill="#F6F6F6"/>
<path d="M48.3368 15.7089H51.7082V13.0709H48.3368V0.320557H43.039L41.1345 7.26728H43.9147L45.0969 2.45294H45.4909V13.0709H40.6747V15.7089H45.4909H48.3368Z" fill="#F6F6F6"/>
<path d="M70.6226 15.7089V0.320557H65.2591L62.6102 13.7304H62.2162L59.5673 0.320557H54.2038V15.7089H57.0059V2.45294H57.4L60.027 15.7089H64.7994L67.4264 2.45294H67.8204V15.7089H70.6226Z" fill="#F6F6F6"/>
<path d="M81.2182 15.7089H84.5895V13.0709H81.2182V0.320557H75.9204L74.0158 7.26728H76.7961L77.9782 2.45294H78.3723V13.0709H73.5561V15.7089H78.3723H81.2182Z" fill="#F6F6F6"/>
<path d="M97.2866 13.1148H89.6683V12.7631L97.2429 4.01375V0.320557H86.8662V2.91459H94.2218V3.26632L86.6473 12.0157V15.7089H97.2866V13.1148Z" fill="#F6F6F6"/>
<path d="M102.583 9.26777H108.931V6.62977H102.583V2.95855H109.544V0.320557H99.6929V15.7089H109.675V13.0709H102.583V9.26777Z" fill="#F6F6F6"/>
<path d="M6.17345 21.9961C4.27618 21.9961 2.77295 22.5274 1.66377 23.5899C0.554589 24.6524 0 26.1729 0 28.1514V31.8446C0 33.8231 0.554589 35.3436 1.66377 36.4062C2.77295 37.4687 4.27618 38 6.17345 38C8.07073 38 9.51194 37.4833 10.5408 36.4501C11.5698 35.4169 12.0842 33.999 12.0842 32.1964V31.8886H9.23829V32.2843C9.23829 33.1783 8.98654 33.922 8.48303 34.5156C7.97952 35.1091 7.20966 35.4059 6.17345 35.4059C5.13725 35.4059 4.34915 35.0872 3.76537 34.4496C3.18159 33.8121 2.8897 32.9584 2.8897 31.8886V28.1075C2.8897 27.0229 3.18159 26.1656 3.76537 25.5354C4.34915 24.9052 5.15184 24.5901 6.17345 24.5901C7.19507 24.5901 7.97952 24.8832 8.48303 25.4695C8.98654 26.0557 9.23829 26.8031 9.23829 27.7118V27.9316H12.0842V27.7997C12.0842 25.9971 11.5698 24.5791 10.5408 23.5459C9.51194 22.5127 8.05614 21.9961 6.17345 21.9961Z" fill="#F6F6F6"/>
<path d="M37.807 22.8096C37.0918 22.4725 36.2526 22.304 35.2894 22.304H28.6343V37.6923H31.524V31.8887H35.5521C35.9753 31.8887 36.2782 31.9986 36.4606 32.2184C36.643 32.4383 36.7343 32.724 36.7343 33.0758V37.6923H39.624V32.6581C39.624 32.0426 39.4634 31.5479 39.1423 31.1742C38.8213 30.8005 38.3688 30.599 37.7851 30.5697V30.174C38.4272 29.9102 38.9672 29.4925 39.405 28.9209C39.8429 28.3494 40.0618 27.6019 40.0618 26.6786V26.4148C40.0618 25.5795 39.8648 24.854 39.4707 24.2385C39.0767 23.623 38.5221 23.1466 37.807 22.8096ZM37.1721 27.2062C37.1721 27.8218 36.9787 28.3164 36.592 28.6901C36.2052 29.0638 35.6689 29.2507 34.9829 29.2507H31.524V24.942H34.9829C35.6835 24.942 36.2235 25.1288 36.6029 25.5025C36.9824 25.8762 37.1721 26.3709 37.1721 26.9864V27.2062Z" fill="#F6F6F6"/>
<path d="M51.325 22.8865C50.588 22.4981 49.7379 22.304 48.7747 22.304H42.4698V37.6923H45.3596V32.0645H48.7747C49.7087 32.0645 50.5442 31.8704 51.2813 31.482C52.0183 31.0936 52.6021 30.544 53.0326 29.8332C53.4631 29.1224 53.6784 28.2907 53.6784 27.3381V27.0304C53.6784 26.0631 53.4704 25.2277 53.0545 24.5243C52.6385 23.8208 52.0621 23.2749 51.325 22.8865ZM50.7887 27.2942C50.7887 27.9537 50.5771 28.4739 50.1538 28.855C49.7306 29.236 49.176 29.4266 48.4901 29.4266H45.3596V24.942H48.4901C49.176 24.942 49.7306 25.1325 50.1538 25.5135C50.5771 25.8946 50.7887 26.4148 50.7887 27.0743V27.2942Z" fill="#F6F6F6"/>
<path d="M79.0509 22.8096C78.3357 22.4725 77.4965 22.304 76.5333 22.304H69.8782V37.6923H72.7679V31.8887H76.796C77.2192 31.8887 77.5221 31.9986 77.7045 32.2184C77.8869 32.4383 77.9782 32.724 77.9782 33.0758V37.6923H80.8679V32.6581C80.8679 32.0426 80.7073 31.5479 80.3862 31.1742C80.0652 30.8005 79.6127 30.599 79.029 30.5697V30.174C79.6711 29.9102 80.2111 29.4925 80.6489 28.9209C81.0868 28.3494 81.3057 27.6019 81.3057 26.6786V26.4148C81.3057 25.5795 81.1087 24.854 80.7146 24.2385C80.3206 23.623 79.766 23.1466 79.0509 22.8096ZM78.416 27.2062C78.416 27.8218 78.2226 28.3164 77.8359 28.6901C77.4491 29.0638 76.9128 29.2507 76.2268 29.2507H72.7679V24.942H76.2268C76.9274 24.942 77.4674 25.1288 77.8468 25.5025C78.2263 25.8762 78.416 26.3709 78.416 26.9864V27.2062Z" fill="#F6F6F6"/>
<path d="M86.6893 22.304L82.6612 37.6923H85.6385L86.4703 34.3068H91.9433L92.7752 37.6923H95.7524L91.7244 22.304H86.6893ZM87.149 31.6249L89.0098 24.1286H89.4038L91.2646 31.6249H87.149Z" fill="#F6F6F6"/>
<path d="M96.6719 24.942H101.138V37.6923H104.027V24.942H108.493V22.304H96.6719V24.942Z" fill="#F6F6F6"/>
<path d="M118.169 22.304H112.872L110.967 29.2507H113.747L114.93 24.4363H115.324V35.0543H110.507V37.6923H115.324H118.169H121.541V35.0543H118.169V22.304Z" fill="#F6F6F6"/>
<path d="M147.154 22.304V35.7138H146.76L143.717 22.304H138.222V37.6923H141.068V24.2825H141.462L144.505 37.6923H150V22.304H147.154Z" fill="#F6F6F6"/>
<path d="M1.64188 14.498C2.73646 15.5019 4.18861 16.0039 5.99832 16.0039C7.80803 16.0039 9.27843 15.5019 10.3657 14.498C11.453 13.4941 11.9966 11.9736 11.9966 9.93646V6.0674C11.9966 4.0889 11.453 2.58304 10.3657 1.54982C9.27843 0.516608 7.82263 0 5.99832 0C4.17402 0 2.73646 0.516608 1.64188 1.54982C0.547292 2.58304 0 4.0889 0 6.0674V9.93646C0 11.9736 0.547292 13.4941 1.64188 14.498ZM9.19451 5.9355V10.0244C9.19451 11.1382 8.93546 11.9956 8.41735 12.5964C7.89925 13.1973 7.09291 13.4978 5.99832 13.4978C5.45833 13.4978 4.98766 13.4227 4.58448 13.2743L9.15802 5.31813C9.17991 5.51415 9.19268 5.71933 9.19268 5.9355H9.19451ZM2.80214 5.9355C2.80214 4.85099 3.08308 4.00829 3.64497 3.40742C4.20685 2.80654 4.9913 2.5061 5.99832 2.5061C6.5219 2.5061 6.9871 2.5922 7.39574 2.75891L2.8368 10.6857C2.81491 10.4751 2.80214 10.2571 2.80214 10.0244V5.9355Z" fill="#F6F6F6"/>
<path d="M20.0966 21.9961C18.2869 21.9961 16.8347 22.5127 15.7401 23.5459C14.6456 24.5791 14.0983 26.085 14.0983 28.0635V31.9326C14.0983 33.9697 14.6456 35.4902 15.7401 36.4941C16.8347 37.498 18.2869 38 20.0966 38C21.9063 38 23.3767 37.498 24.464 36.4941C25.5513 35.4902 26.0949 33.9697 26.0949 31.9326V28.0635C26.0949 26.085 25.5513 24.5791 24.464 23.5459C23.3767 22.5127 21.9209 21.9961 20.0966 21.9961ZM16.9004 32.0205V27.9316C16.9004 26.8471 17.1813 26.0044 17.7432 25.4035C18.3051 24.8026 19.0896 24.5022 20.0966 24.5022C20.6202 24.5022 21.0854 24.5883 21.494 24.755L16.9369 32.6818C16.915 32.4711 16.9022 32.2531 16.9022 32.0205H16.9004ZM23.2928 32.0205C23.2928 33.1343 23.0337 33.9917 22.5156 34.5925C21.9975 35.1934 21.1912 35.4939 20.0966 35.4939C19.5566 35.4939 19.0859 35.4187 18.6828 35.2704L23.2563 27.3142C23.2782 27.5102 23.2909 27.7154 23.2909 27.9316V32.0205H23.2928Z" fill="#F6F6F6"/>
<path d="M61.3405 21.9961C59.5308 21.9961 58.0786 22.5127 56.984 23.5459C55.8895 24.5791 55.3422 26.085 55.3422 28.0635V31.9326C55.3422 33.9697 55.8895 35.4902 56.984 36.4941C58.0786 37.498 59.5308 38 61.3405 38C63.1502 38 64.6206 37.498 65.7079 36.4941C66.7952 35.4902 67.3388 33.9697 67.3388 31.9326V28.0635C67.3388 26.085 66.7952 24.5791 65.7079 23.5459C64.6206 22.5127 63.1648 21.9961 61.3405 21.9961ZM58.1443 32.0205V27.9316C58.1443 26.8471 58.4252 26.0044 58.9871 25.4035C59.549 24.8026 60.3335 24.5022 61.3405 24.5022C61.8641 24.5022 62.3293 24.5883 62.7379 24.755L58.1808 32.6818C58.1589 32.4711 58.1461 32.2531 58.1461 32.0205H58.1443ZM64.5367 32.0205C64.5367 33.1343 64.2776 33.9917 63.7595 34.5925C63.2414 35.1934 62.4351 35.4939 61.3405 35.4939C60.8005 35.4939 60.3298 35.4187 59.9266 35.2704L64.5002 27.3142C64.5221 27.5102 64.5348 27.7154 64.5348 27.9316V32.0205H64.5367Z" fill="#F6F6F6"/>
<path d="M129.684 21.9961C127.875 21.9961 126.423 22.5127 125.328 23.5459C124.233 24.5791 123.686 26.085 123.686 28.0635V31.9326C123.686 33.9697 124.233 35.4902 125.328 36.4941C126.423 37.498 127.875 38 129.684 38C131.494 38 132.965 37.498 134.052 36.4941C135.139 35.4902 135.683 33.9697 135.683 31.9326V28.0635C135.683 26.085 135.139 24.5791 134.052 23.5459C132.965 22.5127 131.509 21.9961 129.684 21.9961ZM126.488 32.0205V27.9316C126.488 26.8471 126.769 26.0044 127.331 25.4035C127.893 24.8026 128.677 24.5022 129.684 24.5022C130.208 24.5022 130.673 24.5883 131.082 24.755L126.525 32.6818C126.503 32.4711 126.49 32.2531 126.49 32.0205H126.488ZM132.881 32.0205C132.881 33.1343 132.622 33.9917 132.104 34.5925C131.585 35.1934 130.779 35.4939 129.684 35.4939C129.144 35.4939 128.674 35.4187 128.271 35.2704L132.844 27.3142C132.866 27.5102 132.879 27.7154 132.879 27.9316V32.0205H132.881Z" fill="#F6F6F6"/>
</g>
</svg>
