<svg width="90" height="90" viewBox="0 0 90 90" fill="none" xmlns="http://www.w3.org/2000/svg">
<g clip-path="url(#clip0_2508_1319)">
<path d="M56.5912 60.0001C81.2288 59.8651 90 46.8151 90 35.6251C89.9977 32.6253 88.9678 29.7168 87.0818 27.384C85.1959 25.0511 82.5677 23.4347 79.635 22.8039C80.145 21.3526 80.5875 20.0214 80.8838 19.0126C81.5384 16.8187 81.667 14.5013 81.2591 12.2484C80.8513 9.99551 79.9185 7.87034 78.5363 6.04511C77.1428 4.16218 75.3256 2.63377 73.2318 1.58359C71.1379 0.533402 68.8262 -0.00905711 66.4837 0.00011439H23.5163C21.1738 -0.00905711 18.8621 0.533402 16.7682 1.58359C14.6744 2.63377 12.8572 4.16218 11.4637 6.04511C10.0815 7.87034 9.14871 9.99551 8.74087 12.2484C8.33302 14.5013 8.46162 16.8187 9.11625 19.0126C9.4125 20.0214 9.86625 21.3526 10.365 22.8039C7.43225 23.4347 4.8041 25.0511 2.91817 27.384C1.03224 29.7168 0.00234855 32.6253 0 35.6251C0 46.8151 8.77125 59.8651 33.4088 60.0001C33.6278 61.1385 33.742 62.2946 33.75 63.4539V75.0001C33.8144 76.0017 33.6646 77.0056 33.3105 77.9447C32.9564 78.8839 32.4061 79.7368 31.6964 80.4465C30.9867 81.1562 30.1338 81.7065 29.1946 82.0606C28.2555 82.4147 27.2516 82.5646 26.25 82.5001H22.5C21.5054 82.5001 20.5516 82.8952 19.8484 83.5985C19.1451 84.3017 18.75 85.2556 18.75 86.2501C18.75 87.2447 19.1451 88.1985 19.8484 88.9018C20.5516 89.605 21.5054 90.0001 22.5 90.0001H67.5C68.4946 90.0001 69.4484 89.605 70.1517 88.9018C70.8549 88.1985 71.25 87.2447 71.25 86.2501C71.25 85.2556 70.8549 84.3017 70.1517 83.5985C69.4484 82.8952 68.4946 82.5001 67.5 82.5001H63.78C62.7762 82.5678 61.7696 82.4204 60.8274 82.0678C59.8851 81.7153 59.029 81.1656 58.3162 80.4557C57.6034 79.7457 57.0504 78.8918 56.6941 77.951C56.3377 77.0102 56.1863 76.0041 56.25 75.0001V63.4501C56.2582 62.2921 56.3724 61.1373 56.5912 60.0001ZM76.875 30.0001C78.3668 30.0001 79.7976 30.5927 80.8525 31.6476C81.9074 32.7025 82.5 34.1333 82.5 35.6251C82.5 43.2526 76.4662 51.3751 59.865 52.3876C60.6953 51.2544 61.6542 50.2212 62.7225 49.3089C68.7001 43.9238 73.4642 37.3292 76.6987 29.9626C76.7587 29.9664 76.8112 30.0001 76.875 30.0001ZM7.5 35.6251C7.5 34.1333 8.09263 32.7025 9.14752 31.6476C10.2024 30.5927 11.6332 30.0001 13.125 30.0001C13.1888 30.0001 13.2413 29.9664 13.3012 29.9626C16.5358 37.3292 21.2999 43.9238 27.2775 49.3089C28.3458 50.2212 29.3047 51.2544 30.135 52.3876C13.5338 51.3751 7.5 43.2526 7.5 35.6251ZM39.4237 82.5001C40.6635 80.1973 41.2923 77.6151 41.25 75.0001V63.4539C41.263 59.6808 40.4543 55.9501 38.88 52.5211C37.3057 49.0922 35.0036 46.0471 32.1338 43.5976C24.5082 36.3097 19.0336 27.0652 16.3088 16.8751C15.9885 15.7995 15.9269 14.6635 16.129 13.5596C16.331 12.4557 16.7909 11.4151 17.4713 10.5226C18.1708 9.57958 19.0826 8.81454 20.1328 8.28943C21.183 7.76433 22.3421 7.49392 23.5163 7.50011H66.4837C67.6592 7.49566 68.8191 7.76837 69.8694 8.29613C70.9197 8.82388 71.8308 9.59182 72.5287 10.5376C73.2091 11.4301 73.669 12.4707 73.871 13.5746C74.0731 14.6785 74.0115 15.8145 73.6912 16.8901C70.9638 27.0748 65.4894 36.3138 57.8662 43.5976C54.9965 46.0464 52.6944 49.0908 51.1201 52.5191C49.5458 55.9475 48.737 59.6776 48.75 63.4501V75.0001C48.7077 77.6151 49.3365 80.1973 50.5763 82.5001H39.4237Z" fill="#2F5AEA"/>
</g>
<defs>
<clipPath id="clip0_2508_1319">
<rect width="90" height="90" fill="white"/>
</clipPath>
</defs>
</svg>
