<svg width="100" height="100" viewBox="0 0 100 100" fill="none" xmlns="http://www.w3.org/2000/svg">
<g clip-path="url(#clip0_2508_1323)">
<path d="M75 50C75 52.3 73.1333 54.1667 70.8333 54.1667C68.5333 54.1667 66.6667 52.3 66.6667 50C66.6667 47.7 68.5333 45.8333 70.8333 45.8333C73.1333 45.8333 75 47.7 75 50ZM29.1667 20.8333C31.4667 20.8333 33.3333 18.9708 33.3333 16.6667C33.3333 12.0708 37.0708 8.33333 41.6667 8.33333C46.2625 8.33333 50 12.0708 50 16.6667C50 18.9708 51.8667 20.8333 54.1667 20.8333C56.4667 20.8333 58.3333 18.9708 58.3333 16.6667C58.3333 7.475 50.8583 0 41.6667 0C32.475 0 25 7.475 25 16.6667C25 18.9708 26.8667 20.8333 29.1667 20.8333ZM100 54.1667V62.5C100 67.1083 96.8833 69.9125 93.4667 70.6417C90.7125 77.5333 85.6667 83.3542 79.1667 87.1167V87.5C79.1667 94.3917 73.5583 100 66.6667 100C61.2333 100 56.6 96.5167 54.8792 91.6667H45.1167C43.3958 96.5167 38.7625 100 33.3292 100C26.4375 100 20.8292 94.3917 20.8292 87.5V87.1708C9.85 80.8417 3.40417 68.9333 4.23334 56.125C4.49584 52.05 5.525 48.1792 7.17084 44.6417C2.93334 42.6375 -0.0083313 38.325 -0.0083313 33.3333C-0.0083313 26.4417 5.6 20.8333 12.4917 20.8333C14.7917 20.8333 16.6583 22.6958 16.6583 25C16.6583 27.3042 14.7917 29.1667 12.4917 29.1667C10.1917 29.1667 8.325 31.0333 8.325 33.3333C8.325 35.3792 9.80834 37.0833 11.7542 37.4333C18.0917 29.8375 27.8083 25 38.6 25H60.9458C64 18.8417 69.7042 14.5333 77.3083 12.725C79.7709 12.1458 82.3208 12.7125 84.3125 14.2833C86.3334 15.8833 87.4958 18.275 87.4958 20.85V36.3292C90.0292 39.2083 92.0542 42.5 93.4625 46.025C96.8833 46.7542 100 49.5583 100 54.1667ZM91.6667 54.1667H90.4417C88.6 54.1667 86.975 52.9542 86.45 51.1875C85.3083 47.3542 83.2 43.7875 80.3542 40.8667C79.5917 40.0875 79.1667 39.0417 79.1667 37.9583V20.85C75.1042 21.8167 69.7292 24.3083 67.65 30.5792C67.0625 32.3417 65.3458 33.5542 63.525 33.4292C63.2417 33.4167 38.6083 33.3375 38.6083 33.3375C24.8458 33.3375 13.4 43.5833 12.5542 56.6667C11.8875 66.9542 17.475 76.4667 26.7917 80.8958C28.2458 81.5875 29.1667 83.0542 29.1667 84.6583V87.5042C29.1667 89.8042 31.0375 91.6708 33.3333 91.6708C35.6292 91.6708 37.5 89.8042 37.5 87.5042C37.5 85.2042 39.3667 83.3375 41.6667 83.3375H58.3333C60.6333 83.3375 62.5 85.2 62.5 87.5042C62.5 89.8083 64.3708 91.6708 66.6667 91.6708C68.9625 91.6708 70.8333 89.8042 70.8333 87.5042V84.6125C70.8333 83.0083 71.7542 81.5458 73.2042 80.8542C79.6292 77.7875 84.4542 72.1833 86.45 65.4875C86.975 63.7208 88.6 62.5083 90.4417 62.5083H91.6667V54.175V54.1667Z" fill="white"/>
</g>
<defs>
<clipPath id="clip0_2508_1323">
<rect width="100" height="100" fill="white"/>
</clipPath>
</defs>
</svg>
