<svg width="100" height="100" viewBox="0 0 100 100" fill="none" xmlns="http://www.w3.org/2000/svg">
<path d="M79.3875 74.085C81.3525 71.1188 82.5 67.5675 82.5 63.75C82.5 53.4113 74.0888 45 63.75 45C53.4113 45 45 53.4113 45 63.75C45 74.0888 53.4113 82.5 63.75 82.5C67.5675 82.5 71.1188 81.3525 74.085 79.3875L83.5987 88.9013C84.33 89.6325 85.29 90 86.25 90C87.21 90 88.17 89.6325 88.9013 88.9013C90.3675 87.435 90.3675 85.065 88.9013 83.5987L79.3875 74.085ZM52.5 63.75C52.5 57.5475 57.5475 52.5 63.75 52.5C69.9525 52.5 75 57.5475 75 63.75C75 69.9525 69.9525 75 63.75 75C57.5475 75 52.5 69.9525 52.5 63.75ZM22.5 16.875C22.5 19.98 19.98 22.5 16.875 22.5C13.77 22.5 11.25 19.98 11.25 16.875C11.25 13.77 13.77 11.25 16.875 11.25C19.98 11.25 22.5 13.77 22.5 16.875ZM37.5 16.875C37.5 19.98 34.98 22.5 31.875 22.5C28.77 22.5 26.25 19.98 26.25 16.875C26.25 13.77 28.77 11.25 31.875 11.25C34.98 11.25 37.5 13.77 37.5 16.875ZM71.25 0H18.75C8.41125 0 0 8.41125 0 18.75V63.75C0 74.0888 8.41125 82.5 18.75 82.5H37.5C39.5737 82.5 41.25 80.8238 41.25 78.75C41.25 76.6762 39.5737 75 37.5 75H18.75C12.5475 75 7.5 69.9525 7.5 63.75V33.75H82.5V45C82.5 47.07 84.1762 48.75 86.25 48.75C88.3238 48.75 90 47.07 90 45V18.75C90 8.41125 81.5888 0 71.25 0ZM7.5 26.25V18.75C7.5 12.5475 12.5475 7.5 18.75 7.5H71.25C77.4525 7.5 82.5 12.5475 82.5 18.75V26.25H7.5Z" fill="#2F5AEA"/>
</svg>
