<svg width="80" height="80" viewBox="0 0 80 80" fill="none" xmlns="http://www.w3.org/2000/svg">
<g clip-path="url(#clip0_2508_1307)">
<path d="M15 58.3333H6.66667C4.89856 58.3333 3.20286 59.0357 1.95262 60.286C0.702379 61.5362 0 63.2319 0 65L0 73.3333C0 75.1015 0.702379 76.7971 1.95262 78.0474C3.20286 79.2976 4.89856 80 6.66667 80H15C16.7681 80 18.4638 79.2976 19.714 78.0474C20.9643 76.7971 21.6667 75.1015 21.6667 73.3333V65C21.6667 63.2319 20.9643 61.5362 19.714 60.286C18.4638 59.0357 16.7681 58.3333 15 58.3333ZM15 73.3333H6.66667V65H15V73.3333Z" fill="#2F5AEA"/>
<path d="M73.3333 58.3333H65C63.2319 58.3333 61.5362 59.0357 60.286 60.286C59.0357 61.5362 58.3333 63.2319 58.3333 65V73.3333C58.3333 75.1015 59.0357 76.7971 60.286 78.0474C61.5362 79.2976 63.2319 80 65 80H73.3333C75.1015 80 76.7971 79.2976 78.0474 78.0474C79.2976 76.7971 80 75.1015 80 73.3333V65C80 63.2319 79.2976 61.5362 78.0474 60.286C76.7971 59.0357 75.1015 58.3333 73.3333 58.3333ZM73.3333 73.3333H65V65H73.3333V73.3333Z" fill="#2F5AEA"/>
<path d="M15 29.1667H6.66667C4.89856 29.1667 3.20286 29.8691 1.95262 31.1193C0.702379 32.3695 0 34.0652 0 35.8333L0 44.1667C0 45.9348 0.702379 47.6305 1.95262 48.8807C3.20286 50.131 4.89856 50.8333 6.66667 50.8333H15C16.7681 50.8333 18.4638 50.131 19.714 48.8807C20.9643 47.6305 21.6667 45.9348 21.6667 44.1667V35.8333C21.6667 34.0652 20.9643 32.3695 19.714 31.1193C18.4638 29.8691 16.7681 29.1667 15 29.1667ZM15 44.1667H6.66667V35.8333H15V44.1667Z" fill="#2F5AEA"/>
<path d="M73.4 28.8H65.0667C63.2986 28.8 61.6029 29.5024 60.3526 30.7526C59.1024 32.0029 58.4 33.6986 58.4 35.4667V43.8C58.4 45.5681 59.1024 47.2638 60.3526 48.514C61.6029 49.7643 63.2986 50.4667 65.0667 50.4667H73.4C75.1681 50.4667 76.8638 49.7643 78.114 48.514C79.3643 47.2638 80.0667 45.5681 80.0667 43.8V35.4667C80.0667 33.6986 79.3643 32.0029 78.114 30.7526C76.8638 29.5024 75.1681 28.8 73.4 28.8ZM73.4 43.8H65.0667V35.4667H73.4V43.8Z" fill="#2F5AEA"/>
<path d="M15 0H6.66667C4.89856 0 3.20286 0.702379 1.95262 1.95262C0.702379 3.20286 0 4.89856 0 6.66667L0 15C0 16.7681 0.702379 18.4638 1.95262 19.714C3.20286 20.9643 4.89856 21.6667 6.66667 21.6667H15C16.7681 21.6667 18.4638 20.9643 19.714 19.714C20.9643 18.4638 21.6667 16.7681 21.6667 15V6.66667C21.6667 4.89856 20.9643 3.20286 19.714 1.95262C18.4638 0.702379 16.7681 0 15 0ZM15 15H6.66667V6.66667H15V15Z" fill="#2F5AEA"/>
<path d="M44.1667 58.3333H35.8333C34.0652 58.3333 32.3695 59.0357 31.1193 60.286C29.8691 61.5362 29.1667 63.2319 29.1667 65V73.3333C29.1667 75.1015 29.8691 76.7971 31.1193 78.0474C32.3695 79.2976 34.0652 80 35.8333 80H44.1667C45.9348 80 47.6305 79.2976 48.8807 78.0474C50.131 76.7971 50.8333 75.1015 50.8333 73.3333V65C50.8333 63.2319 50.131 61.5362 48.8807 60.286C47.6305 59.0357 45.9348 58.3333 44.1667 58.3333ZM44.1667 73.3333H35.8333V65H44.1667V73.3333Z" fill="#2F5AEA"/>
<path d="M44.1667 29.1667H35.8333C34.0652 29.1667 32.3695 29.8691 31.1193 31.1193C29.8691 32.3695 29.1667 34.0652 29.1667 35.8333V44.1667C29.1667 45.9348 29.8691 47.6305 31.1193 48.8807C32.3695 50.131 34.0652 50.8333 35.8333 50.8333H44.1667C45.9348 50.8333 47.6305 50.131 48.8807 48.8807C50.131 47.6305 50.8333 45.9348 50.8333 44.1667V35.8333C50.8333 34.0652 50.131 32.3695 48.8807 31.1193C47.6305 29.8691 45.9348 29.1667 44.1667 29.1667ZM44.1667 44.1667H35.8333V35.8333H44.1667V44.1667Z" fill="#2F5AEA"/>
<path d="M44.1667 0H35.8333C34.0652 0 32.3695 0.702379 31.1193 1.95262C29.8691 3.20286 29.1667 4.89856 29.1667 6.66667V15C29.1667 16.7681 29.8691 18.4638 31.1193 19.714C32.3695 20.9643 34.0652 21.6667 35.8333 21.6667H44.1667C45.9348 21.6667 47.6305 20.9643 48.8807 19.714C50.131 18.4638 50.8333 16.7681 50.8333 15V6.66667C50.8333 4.89856 50.131 3.20286 48.8807 1.95262C47.6305 0.702379 45.9348 0 44.1667 0ZM44.1667 15H35.8333V6.66667H44.1667V15Z" fill="#2F5AEA"/>
<path d="M73.3333 0H65C63.2319 0 61.5362 0.702379 60.286 1.95262C59.0357 3.20286 58.3333 4.89856 58.3333 6.66667V15C58.3333 16.7681 59.0357 18.4638 60.286 19.714C61.5362 20.9643 63.2319 21.6667 65 21.6667H73.3333C75.1015 21.6667 76.7971 20.9643 78.0474 19.714C79.2976 18.4638 80 16.7681 80 15V6.66667C80 4.89856 79.2976 3.20286 78.0474 1.95262C76.7971 0.702379 75.1015 0 73.3333 0ZM73.3333 15H65V6.66667H73.3333V15Z" fill="#2F5AEA"/>
</g>
<defs>
<clipPath id="clip0_2508_1307">
<rect width="80" height="80" fill="white"/>
</clipPath>
</defs>
</svg>
