<svg width="1392" height="199" viewBox="0 0 1392 199" fill="none" xmlns="http://www.w3.org/2000/svg">
<path d="M0 99.4288L198.858 2.4707e-05V99.4288L0 198.857V99.4288Z" fill="#2F5AEA"/>
<path d="M198.858 99.4288L397.715 2.4707e-05V99.4288L198.858 198.857V99.4288Z" fill="#2F5AEA"/>
<path d="M397.715 99.4288L596.573 2.4707e-05V99.4288L397.715 198.857V99.4288Z" fill="#2F5AEA"/>
<path d="M596.573 99.4288L795.43 2.4707e-05V99.4288L596.573 198.857V99.4288Z" fill="#2F5AEA"/>
<path d="M795.43 99.4288L994.288 2.4707e-05V99.4288L795.43 198.857V99.4288Z" fill="#2F5AEA"/>
<path d="M994.285 99.4288L1193.14 2.4707e-05V99.4288L994.285 198.857V99.4288Z" fill="#2F5AEA"/>
<path d="M1193.14 99.4288L1392 2.4707e-05V99.4288L1193.14 198.857V99.4288Z" fill="#2F5AEA"/>
</svg>
